<svg width="300" height="300" viewBox="0 0 300 300" fill="none" xmlns="http://www.w3.org/2000/svg">
<rect width="300" height="300" rx="150" fill="url(#paint0_linear_297_782)"/>
<path d="M101.488 172.588V234C101.488 240.627 106.86 246 113.488 246H188.353C194.98 246 200.353 240.627 200.353 234V172.588M97.2897 167.294C42.8903 152.763 51.6164 73.9094 110.316 78.8794C110.722 78.9137 111.13 78.6985 111.323 78.3402C122.68 57.2329 142.622 54 150.551 54C158.479 54 178.322 57.2329 189.677 78.3402C189.87 78.6985 190.278 78.9137 190.684 78.8794C249.384 73.9094 258.11 152.763 203.71 167.294M101.488 217.294L101.13 126.27C101.126 125.301 102.359 124.859 102.944 125.631C110.256 135.276 137.651 170.235 150.551 170.235C163.465 170.235 190.905 135.199 198.181 125.599C198.764 124.831 199.991 125.265 199.995 126.229L200.353 217.294H101.488Z" stroke="white" stroke-width="15" stroke-linecap="round"/>
<defs>
<linearGradient id="paint0_linear_297_782" x1="150" y1="0" x2="150" y2="300" gradientUnits="userSpaceOnUse">
<stop stop-color="#54BB79"/>
<stop offset="1" stop-color="#3A8756"/>
</linearGradient>
</defs>
</svg>
