<svg width="16" height="16" viewBox="0 0 16 16" fill="none" xmlns="http://www.w3.org/2000/svg">
<circle cx="8" cy="8" r="8" fill="#527CBB"/>
<path d="M3 4V4.95H3.67186L5.5818 8.70454L4.95071 10.0154C4.72614 10.4822 5.32933 11.125 5.84684 11.125H11.5405V10.175H5.84684L6.29258 9.225H10.3543C10.6172 9.225 10.7086 8.98403 10.8288 8.75L12.4737 5.54746C12.5939 5.31343 12.2778 4.95 12.015 4.95H4.73757L4.25476 4H3.47447H3.18905H3ZM5.84684 11.6C5.59516 11.6 5.35379 11.7001 5.17583 11.8782C4.99787 12.0564 4.89789 12.298 4.89789 12.55C4.89789 12.802 4.99787 13.0436 5.17583 13.2218C5.35379 13.3999 5.59516 13.5 5.84684 13.5C6.09852 13.5 6.33988 13.3999 6.51784 13.2218C6.69581 13.0436 6.79579 12.802 6.79579 12.55C6.79579 12.298 6.69581 12.0564 6.51784 11.8782C6.33988 11.7001 6.09852 11.6 5.84684 11.6ZM10.5916 11.6C10.3399 11.6 10.0985 11.7001 9.92056 11.8782C9.7426 12.0564 9.64262 12.298 9.64262 12.55C9.64262 12.802 9.7426 13.0436 9.92056 13.2218C10.0985 13.3999 10.3399 13.5 10.5916 13.5C10.8432 13.5 11.0846 13.3999 11.2626 13.2218C11.4405 13.0436 11.5405 12.802 11.5405 12.55C11.5405 12.298 11.4405 12.0564 11.2626 11.8782C11.0846 11.7001 10.8432 11.6 10.5916 11.6Z" fill="white"/>
</svg>
