<svg width="300" height="300" viewBox="0 0 300 300" fill="none" xmlns="http://www.w3.org/2000/svg">
<rect width="300" height="300" rx="64" fill="url(#paint0_linear_297_781)"/>
<path d="M98 174V240C98 246.627 103.373 252 110 252H191C197.627 252 203 246.627 203 240V174M93.5416 168.375C35.7535 152.932 45.0383 69.1157 107.419 74.4379C107.824 74.4725 108.233 74.2571 108.426 73.8986C120.484 51.4388 141.682 48 150.107 48C158.533 48 179.625 51.4388 191.682 73.8986C191.874 74.2571 192.283 74.4725 192.688 74.4379C255.069 69.1157 264.354 152.932 206.566 168.375M98 221.5L97.6194 124.595C97.6156 123.627 98.8501 123.188 99.4347 123.96C107.029 133.993 136.34 171.5 150.107 171.5C163.889 171.5 193.246 133.916 200.803 123.929C201.386 123.16 202.616 123.59 202.619 124.555L203 221.5H98Z" stroke="white" stroke-width="15" stroke-linecap="round"/>
<defs>
<linearGradient id="paint0_linear_297_781" x1="150" y1="0" x2="150" y2="300" gradientUnits="userSpaceOnUse">
<stop stop-color="#54BB79"/>
<stop offset="1" stop-color="#3A8756"/>
</linearGradient>
</defs>
</svg>
