<svg viewBox="0 0 28 28" fill="none" xmlns="http://www.w3.org/2000/svg">
<path d="M4.6665 7H23.3332M18.6665 7L18.3508 6.05275C18.0448 5.13479 17.8917 4.67581 17.608 4.33648C17.3574 4.03682 17.0356 3.80487 16.6721 3.66191C16.2604 3.5 15.7767 3.5 14.809 3.5H13.1906C12.223 3.5 11.7393 3.5 11.3276 3.66191C10.9641 3.80487 10.6423 4.03682 10.3917 4.33648C10.1079 4.67581 9.95491 5.13479 9.64892 6.05275L9.33317 7M20.9998 7V18.9C20.9998 20.8602 20.9998 21.8402 20.6183 22.589C20.2828 23.2476 19.7474 23.783 19.0888 24.1185C18.3401 24.5 17.3601 24.5 15.3998 24.5H12.5998C10.6397 24.5 9.65956 24.5 8.91087 24.1185C8.2523 23.783 7.71687 23.2476 7.38131 22.589C6.99984 21.8402 6.99984 20.8602 6.99984 18.9V7M16.3332 11.6667V19.8333M11.6665 11.6667V19.8333" stroke="currentColor" stroke-width="2" stroke-linecap="round" stroke-linejoin="round"/>
</svg>
